<svg width="182" height="115" viewBox="0 0 182 115" fill="none" xmlns="http://www.w3.org/2000/svg">
<path fill-rule="evenodd" clip-rule="evenodd" d="M25.1817 69.0867C25.1623 69.6826 25.1627 70.2808 25.1832 70.881C26.0376 95.8469 61.4799 114.897 104.346 113.43C147.212 111.963 181.269 90.5346 180.415 65.5687C180.059 55.1815 173.717 45.8184 163.343 38.531L173.281 24.8575L147.35 20.6718L146.858 6.3146L106.916 12.7547L92.1397 1.00017L83.1677 10.608L58.3581 2.15625L52.4431 14.6189L30.3839 12.4144L30.9764 29.7275L8.30384 34.3083L15.3027 53.516L1.00003 67.9567L25.1817 69.0867Z" fill="black"/>
<path d="M25.1817 69.0867L26.1812 69.1193C26.1991 68.5728 25.7746 68.1133 25.2284 68.0878L25.1817 69.0867ZM163.343 38.531L162.534 37.943C162.376 38.1598 162.312 38.4308 162.356 38.6951C162.4 38.9595 162.549 39.1952 162.768 39.3492L163.343 38.531ZM173.281 24.8575L174.09 25.4455C174.295 25.1644 174.338 24.7975 174.206 24.4763C174.074 24.1551 173.784 23.9257 173.441 23.8703L173.281 24.8575ZM147.35 20.6718L146.35 20.706C146.367 21.1836 146.718 21.5829 147.19 21.659L147.35 20.6718ZM146.858 6.3146L147.858 6.2804C147.848 5.99351 147.715 5.72467 147.494 5.54231C147.272 5.35995 146.982 5.28165 146.699 5.32735L146.858 6.3146ZM106.916 12.7547L106.293 13.5373C106.514 13.7124 106.797 13.7867 107.075 13.7419L106.916 12.7547ZM92.1397 1.00017L92.7623 0.217589C92.3541 -0.107133 91.7648 -0.0635632 91.4089 0.317663L92.1397 1.00017ZM83.1677 10.608L82.8452 11.5546C83.2177 11.6815 83.63 11.5782 83.8986 11.2905L83.1677 10.608ZM58.3581 2.15625L58.6806 1.20967C58.1997 1.04587 57.6725 1.26857 57.4547 1.72748L58.3581 2.15625ZM52.4431 14.6189L52.3437 15.6139C52.764 15.6559 53.1654 15.4293 53.3465 15.0476L52.4431 14.6189ZM30.3839 12.4144L30.4833 11.4194C30.1963 11.3907 29.9108 11.4874 29.7003 11.6846C29.4897 11.8818 29.3746 12.1603 29.3845 12.4486L30.3839 12.4144ZM30.9764 29.7275L31.1744 30.7077C31.6536 30.6109 31.9925 30.1818 31.9758 29.6933L30.9764 29.7275ZM8.30384 34.3083L8.1058 33.3281C7.82025 33.3858 7.57406 33.5651 7.43159 33.8192C7.28912 34.0733 7.26453 34.3769 7.36427 34.6506L8.30384 34.3083ZM15.3027 53.516L16.0131 54.2197C16.2855 53.9447 16.3747 53.5372 16.2422 53.1736L15.3027 53.516ZM1.00003 67.9567L0.289542 67.253C0.0114897 67.5337 -0.0751824 67.9518 0.0683362 68.3199C0.211855 68.688 0.558681 68.9371 0.953357 68.9556L1.00003 67.9567ZM25.1832 70.881L26.1826 70.8468C26.1628 70.2689 26.1625 69.693 26.1812 69.1193L25.1817 69.0867L24.1823 69.054C24.1621 69.6722 24.1625 70.2927 24.1838 70.9152L25.1832 70.881ZM104.346 113.43L104.312 112.43C83.0236 113.159 63.6277 108.789 49.4836 101.187C35.3143 93.571 26.5926 82.8259 26.1826 70.8468L25.1832 70.881L24.1838 70.9152C24.6282 83.902 34.0548 95.1647 48.5368 102.948C63.044 110.746 82.8023 115.167 104.38 114.429L104.346 113.43ZM180.415 65.5687L179.415 65.6029C179.825 77.582 171.858 88.8982 158.243 97.4648C144.652 106.016 125.6 111.702 104.312 112.43L104.346 113.43L104.38 114.429C125.958 113.691 145.368 107.929 159.308 99.1576C173.224 90.402 181.859 78.5212 181.414 65.5345L180.415 65.5687ZM163.343 38.531L162.768 39.3492C172.984 46.5257 179.074 55.6327 179.415 65.6029L180.415 65.5687L181.414 65.5345C181.044 54.7303 174.449 45.1112 163.918 37.7127L163.343 38.531ZM163.343 38.531L164.152 39.1189L174.09 25.4455L173.281 24.8575L172.473 24.2696L162.534 37.943L163.343 38.531ZM173.281 24.8575L173.441 23.8703L147.509 19.6846L147.35 20.6718L147.19 21.659L173.122 25.8447L173.281 24.8575ZM147.35 20.6718L148.349 20.6376L147.858 6.2804L146.858 6.3146L145.859 6.3488L146.35 20.706L147.35 20.6718ZM146.858 6.3146L146.699 5.32735L106.757 11.7674L106.916 12.7547L107.075 13.7419L147.017 7.30185L146.858 6.3146ZM106.916 12.7547L107.539 11.9721L92.7623 0.217589L92.1397 1.00017L91.5172 1.78276L106.293 13.5373L106.916 12.7547ZM92.1397 1.00017L91.4089 0.317663L82.4368 9.92553L83.1677 10.608L83.8986 11.2905L92.8706 1.68268L92.1397 1.00017ZM83.1677 10.608L83.4902 9.66146L58.6806 1.20967L58.3581 2.15625L58.0356 3.10283L82.8452 11.5546L83.1677 10.608ZM58.3581 2.15625L57.4547 1.72748L51.5397 14.1901L52.4431 14.6189L53.3465 15.0476L59.2615 2.58502L58.3581 2.15625ZM52.4431 14.6189L52.5426 13.6238L30.4833 11.4194L30.3839 12.4144L30.2844 13.4094L52.3437 15.6139L52.4431 14.6189ZM30.3839 12.4144L29.3845 12.4486L29.9769 29.7617L30.9764 29.7275L31.9758 29.6933L31.3833 12.3802L30.3839 12.4144ZM30.9764 29.7275L30.7783 28.7473L8.1058 33.3281L8.30384 34.3083L8.50188 35.2885L31.1744 30.7077L30.9764 29.7275ZM8.30384 34.3083L7.36427 34.6506L14.3631 53.8583L15.3027 53.516L16.2422 53.1736L9.24341 33.9659L8.30384 34.3083ZM15.3027 53.516L14.5922 52.8123L0.289542 67.253L1.00003 67.9567L1.71052 68.6604L16.0131 54.2197L15.3027 53.516ZM1.00003 67.9567L0.953357 68.9556L25.1351 70.0856L25.1817 69.0867L25.2284 68.0878L1.0467 66.9578L1.00003 67.9567Z" fill="#8B8B8B"/>
</svg>
