<svg width="285" height="114" viewBox="0 0 285 114" fill="none" xmlns="http://www.w3.org/2000/svg">
<path d="M39.9709 36.3103C39.2695 32.653 42.7497 29.8566 48.152 28.8206C53.5543 27.7845 59.5036 28.7724 60.205 32.4296C60.9065 36.0869 56.9504 39.1344 51.5481 40.1705C45.053 41.9628 40.8675 40.9852 39.9709 36.3103Z" fill="white" stroke="black" stroke-width="2" stroke-linecap="round" stroke-linejoin="round"/>
<path d="M23.606 25.3262C23.0232 22.2873 26.0416 19.9393 30.7072 19.0445C35.3727 18.1497 40.4978 18.9358 41.0806 21.9748C41.6634 25.0137 38.2331 27.5734 33.5675 28.4682C27.9549 29.9989 24.351 29.2107 23.606 25.3262Z" fill="white" stroke="black" stroke-width="2" stroke-linecap="round" stroke-linejoin="round"/>
<path d="M22.6848 10.6691C21.8027 8.12497 18.6628 7.61348 14.9747 8.89217C11.2867 10.1709 7.98936 12.9143 8.87144 15.4584C9.75352 18.0025 13.2757 18.5016 16.9638 17.2229C21.594 16.0284 23.8123 13.9212 22.6848 10.6691Z" fill="white" stroke="black" stroke-width="2" stroke-linecap="round" stroke-linejoin="round"/>
<path d="M1.04687 5.0078C0.688343 3.13837 2.4386 1.71447 5.16007 1.19253C7.88154 0.670584 10.8815 1.18347 11.24 3.05289C11.5985 4.92231 9.60876 6.47387 6.8873 6.99581C3.61608 7.9026 1.50517 7.39741 1.04687 5.0078Z" fill="white" stroke="black" stroke-width="2" stroke-linecap="round" stroke-linejoin="round"/>
<path d="M121.396 110.468C100.248 109.04 81.052 106.587 66.6787 102.962C57.7204 99.7683 51.1677 95.1788 47.1884 90.1539C40.771 82.0505 40.8424 67.8477 47.902 60.2231C60.2068 46.9336 94.1725 42.1343 146.429 42.1343C169.017 42.1343 227.9 43.8576 244.632 47.2032C259.842 50.2445 274.873 55.0026 280.911 68.2033C283.33 73.4918 284.483 80.4373 282.413 87.1073C279.247 97.3123 266.28 102.63 255.891 106.221C236.343 112.977 162.797 113.264 121.396 110.468Z" fill="white" stroke="black" stroke-width="2"/>
</svg>
