<svg width="304" height="197" viewBox="0 0 304 197" fill="none" xmlns="http://www.w3.org/2000/svg">
<path fill-rule="evenodd" clip-rule="evenodd" d="M276.015 113.217C294.801 121.832 303 134.547 303 148.309C303 165.242 286.462 181.97 259.104 190.24C245.834 194.252 230.244 195.999 212.331 195.999C157.486 195.999 106.908 178.723 109.067 148.309C109.067 133.218 118.428 119.341 137.492 111.057C141.696 109.23 146.352 107.705 151.494 106.483L140.938 82.9474C134.809 83.6639 128.258 83.9991 121.286 83.9991C75.4881 83.9991 33.2531 68.7446 35.0558 41.8904C35.0558 35.6659 36.7616 29.6753 40.2023 24.3127C29.6752 17.2972 19.1629 17.3775 1.00011 18.1588C19.8304 12.2497 30.4908 9.19524 47.8962 15.7333C50.9698 13.1928 54.6001 10.9242 58.7922 8.99794C69.3993 4.12408 83.4431 1.68845 101.756 1.68845C134.217 -0.695969 158.768 3.29173 174.466 10.9048C190.153 18.512 197 29.739 197 41.8904C197 56.8415 183.19 71.6113 160.345 78.9142C156.934 80.0045 153.339 80.9054 149.561 81.6302L163.889 104.246C171.383 103.268 179.71 102.779 188.943 102.779C227.816 100.078 257.216 104.594 276.015 113.217Z" fill="white"/>
<path d="M276.015 113.217L275.599 114.126V114.126L276.015 113.217ZM259.104 190.24L258.815 189.283V189.283L259.104 190.24ZM109.067 148.309H110.067C110.067 148.333 110.066 148.356 110.064 148.38L109.067 148.309ZM137.492 111.057L137.89 111.974V111.974L137.492 111.057ZM151.494 106.483L152.406 106.074C152.528 106.346 152.523 106.658 152.391 106.925C152.259 107.193 152.015 107.387 151.725 107.456L151.494 106.483ZM140.938 82.9474L140.822 81.9542C141.256 81.9035 141.672 82.1399 141.851 82.5382L140.938 82.9474ZM35.0558 41.8904H36.0558C36.0558 41.9127 36.0551 41.935 36.0536 41.9573L35.0558 41.8904ZM40.2023 24.3127L40.7568 23.4806C41.2108 23.7831 41.3385 24.3936 41.0439 24.8528L40.2023 24.3127ZM1.00011 18.1588L1.04308 19.1578C0.54158 19.1794 0.101797 18.8259 0.015126 18.3314C-0.0715455 17.837 0.221756 17.3549 0.700694 17.2047L1.00011 18.1588ZM47.8962 15.7333L48.5333 16.5041C48.2571 16.7324 47.8799 16.7955 47.5445 16.6695L47.8962 15.7333ZM58.7922 8.99794L59.2097 9.9066V9.9066L58.7922 8.99794ZM101.756 1.68845L101.83 2.68576C101.805 2.68755 101.781 2.68845 101.756 2.68845V1.68845ZM174.466 10.9048L174.03 11.8045H174.03L174.466 10.9048ZM160.345 78.9142L160.04 77.9617V77.9617L160.345 78.9142ZM149.561 81.6302L148.716 82.1654C148.539 81.8858 148.512 81.5368 148.643 81.2332C148.775 80.9295 149.048 80.7104 149.373 80.6481L149.561 81.6302ZM163.889 104.246L164.018 105.237C163.632 105.288 163.252 105.109 163.044 104.781L163.889 104.246ZM188.943 102.779L189.012 103.776C188.989 103.778 188.966 103.779 188.943 103.779V102.779ZM303 148.309H302C302 135.035 294.125 122.622 275.599 114.126L276.015 113.217L276.432 112.308C295.476 121.042 304 134.06 304 148.309H303ZM259.104 190.24L258.815 189.283C286.035 181.054 302 164.563 302 148.309H303H304C304 165.921 286.89 182.885 259.393 191.198L259.104 190.24ZM212.331 195.999V194.999C230.185 194.999 245.67 193.257 258.815 189.283L259.104 190.24L259.393 191.198C245.998 195.247 230.302 196.999 212.331 196.999V195.999ZM109.067 148.309L110.064 148.38C109.033 162.902 120.568 174.554 139.711 182.638C158.781 190.691 184.994 194.999 212.331 194.999V195.999V196.999C184.823 196.999 158.324 192.669 138.933 184.481C119.616 176.323 106.941 164.13 108.069 148.238L109.067 148.309ZM137.492 111.057L137.89 111.974C119.106 120.137 110.067 133.702 110.067 148.309H109.067H108.067C108.067 132.735 117.749 118.546 137.093 110.14L137.492 111.057ZM151.494 106.483L151.725 107.456C146.632 108.667 142.034 110.174 137.89 111.974L137.492 111.057L137.093 110.14C141.359 108.286 146.071 106.744 151.263 105.51L151.494 106.483ZM151.494 106.483L150.582 106.893L140.026 83.3567L140.938 82.9474L141.851 82.5382L152.406 106.074L151.494 106.483ZM121.286 83.9991V82.9991C128.227 82.9991 134.738 82.6654 140.822 81.9542L140.938 82.9474L141.054 83.9407C134.88 84.6625 128.29 84.9991 121.286 84.9991V83.9991ZM35.0558 41.8904L36.0536 41.9573C35.1958 54.7351 44.7853 64.9829 60.7284 72.1019C76.6199 79.1979 98.4785 82.9991 121.286 82.9991V83.9991V84.9991C98.296 84.9991 76.1379 81.173 59.913 73.9282C43.7398 66.7064 33.1131 55.8999 34.058 41.8234L35.0558 41.8904ZM40.2023 24.3127L41.0439 24.8528C37.7083 30.0515 36.0558 35.8542 36.0558 41.8904H35.0558H34.0558C34.0558 35.4776 35.8148 29.2991 39.3606 23.7727L40.2023 24.3127ZM1.00011 18.1588L0.95713 17.1597C19.0724 16.3804 29.9186 16.2576 40.7568 23.4806L40.2023 24.3127L39.6477 25.1449C29.4319 18.3367 19.2534 18.3745 1.04308 19.1578L1.00011 18.1588ZM47.8962 15.7333L47.5445 16.6695C38.9693 13.4483 32.1054 12.6047 25.0773 13.2738C18.0056 13.9471 10.7348 16.152 1.29952 19.1129L1.00011 18.1588L0.700694 17.2047C10.0957 14.2564 17.5702 11.9795 24.8877 11.2829C32.2487 10.582 39.4177 11.4803 48.2478 14.7972L47.8962 15.7333ZM58.7922 8.99794L59.2097 9.9066C55.0891 11.8 51.5341 14.0238 48.5333 16.5041L47.8962 15.7333L47.2591 14.9626C50.4055 12.3619 54.111 10.0484 58.3747 8.08928L58.7922 8.99794ZM101.756 1.68845V2.68845C83.5178 2.68845 69.6348 5.11639 59.2097 9.9066L58.7922 8.99794L58.3747 8.08928C69.1638 3.13177 83.3684 0.688446 101.756 0.688446V1.68845ZM174.466 10.9048L174.03 11.8045C158.55 4.29762 134.197 0.308212 101.83 2.68576L101.756 1.68845L101.683 0.691132C134.238 -1.70015 158.986 2.28584 174.903 10.005L174.466 10.9048ZM197 41.8904H196C196 30.1954 189.443 19.2791 174.03 11.8045L174.466 10.9048L174.903 10.005C190.863 17.7449 198 29.2827 198 41.8904H197ZM160.345 78.9142L160.04 77.9617C182.715 70.7134 196 56.196 196 41.8904H197H198C198 57.487 183.665 72.5093 160.649 79.8667L160.345 78.9142ZM149.561 81.6302L149.373 80.6481C153.116 79.9301 156.671 79.0387 160.04 77.9617L160.345 78.9142L160.649 79.8667C157.196 80.9704 153.563 81.8808 149.749 82.6123L149.561 81.6302ZM149.561 81.6302L150.406 81.095L164.733 103.71L163.889 104.246L163.044 104.781L148.716 82.1654L149.561 81.6302ZM188.943 102.779V103.779C179.744 103.779 171.462 104.266 164.018 105.237L163.889 104.246L163.759 103.254C171.305 102.269 179.676 101.779 188.943 101.779V102.779ZM276.015 113.217L275.599 114.126C257.01 105.6 227.798 101.082 189.012 103.776L188.943 102.779L188.873 101.781C227.834 99.0745 257.422 103.589 276.432 112.308L276.015 113.217Z" fill="black"/>
</svg>
