<svg width="544" height="141" viewBox="0 0 544 141" fill="none" xmlns="http://www.w3.org/2000/svg">
<path fill-rule="evenodd" clip-rule="evenodd" d="M423.5 140C489.498 140 543 119.853 543 95C543 70.1472 489.498 50 423.5 50C357.502 50 304 70.1472 304 95C304 102.076 308.337 108.771 316.066 114.728L298 135.149L322.494 119.059C343.68 131.645 380.999 140 423.5 140Z" fill="#FFE965"/>
<path d="M316.066 114.728L316.676 113.936C316.896 114.105 317.035 114.357 317.061 114.633C317.087 114.909 316.998 115.183 316.815 115.391L316.066 114.728ZM298 135.149L298.549 135.985C298.13 136.26 297.572 136.183 297.244 135.804C296.916 135.425 296.919 134.862 297.251 134.487L298 135.149ZM322.494 119.059L321.945 118.223C322.265 118.013 322.676 118.004 323.005 118.199L322.494 119.059ZM543 95H544C544 101.6 540.444 107.77 534.274 113.263C528.103 118.757 519.23 123.659 508.352 127.756C486.587 135.951 456.588 141 423.5 141V140V139C456.41 139 486.161 133.975 507.647 125.884C518.394 121.837 527.021 117.042 532.944 111.769C538.868 106.495 542 100.826 542 95H543ZM423.5 50V49C456.588 49 486.587 54.0486 508.352 62.2443C519.23 66.3409 528.103 71.2429 534.274 76.7371C540.444 82.2304 544 88.3998 544 95H543H542C542 89.1738 538.868 83.505 532.944 78.2309C527.021 72.9576 518.394 68.1629 507.647 64.116C486.161 56.025 456.41 51 423.5 51V50ZM304 95H303C303 88.3998 306.556 82.2304 312.726 76.7371C318.897 71.2429 327.77 66.3409 338.648 62.2443C360.413 54.0486 390.412 49 423.5 49V50V51C390.59 51 360.839 56.025 339.353 64.116C328.606 68.1629 319.979 72.9576 314.056 78.2309C308.132 83.505 305 89.1738 305 95H304ZM316.066 114.728L315.455 115.52C307.609 109.472 303 102.518 303 95H304H305C305 101.635 309.066 108.07 316.676 113.936L316.066 114.728ZM316.066 114.728L316.815 115.391L298.749 135.812L298 135.149L297.251 134.487L315.317 114.065L316.066 114.728ZM298 135.149L297.451 134.313L321.945 118.223L322.494 119.059L323.043 119.894L298.549 135.985L298 135.149ZM423.5 140V141C380.91 141 343.387 132.634 321.984 119.918L322.494 119.059L323.005 118.199C343.974 130.656 381.088 139 423.5 139V140Z" fill="#F33535"/>
<path fill-rule="evenodd" clip-rule="evenodd" d="M72.1693 81.9607C30.1077 75.1617 1 60.4959 1 43.5C1 20.0279 56.5167 1 125 1C193.483 1 249 20.0279 249 43.5C249 66.9721 193.483 86 125 86C110.84 86 97.2336 85.1865 84.5581 83.6883L98.5979 110.18L72.1693 81.9607Z" fill="white"/>
<path d="M72.1693 81.9607L72.8991 81.2772C72.7479 81.1156 72.5473 81.0089 72.3288 80.9735L72.1693 81.9607ZM84.5581 83.6883L84.6755 82.6953C84.3062 82.6516 83.9433 82.8165 83.7331 83.1232C83.523 83.43 83.5004 83.8281 83.6746 84.1566L84.5581 83.6883ZM98.5979 110.18L97.868 110.864C98.2106 111.23 98.7711 111.285 99.179 110.994C99.5869 110.703 99.7162 110.155 99.4815 109.712L98.5979 110.18ZM1 43.5H0C0 52.6017 7.75912 60.7707 20.3434 67.4378C33.0089 74.148 50.9178 79.5385 72.0097 82.9479L72.1693 81.9607L72.3288 80.9735C51.3592 77.5839 33.6834 72.242 21.2797 65.6705C8.79473 59.056 2 51.3942 2 43.5H1ZM125 1V0C90.6784 0 59.5638 4.76655 36.9945 12.502C25.7148 16.368 16.5149 20.9941 10.115 26.1801C3.72335 31.3595 0 37.2062 0 43.5H1H2C2 38.0578 5.21624 32.7239 11.3741 27.734C17.5237 22.7508 26.4831 18.2189 37.643 14.3939C59.9529 6.7474 90.8383 2 125 2V1ZM249 43.5H250C250 37.2062 246.277 31.3595 239.885 26.1801C233.485 20.9941 224.285 16.368 213.005 12.502C190.436 4.76655 159.322 0 125 0V1V2C159.162 2 190.047 6.7474 212.357 14.3939C223.517 18.2189 232.476 22.7508 238.626 27.734C244.784 32.7239 248 38.0578 248 43.5H249ZM125 86V87C159.322 87 190.436 82.2334 213.005 74.498C224.285 70.632 233.485 66.0059 239.885 60.8199C246.277 55.6405 250 49.7938 250 43.5H249H248C248 48.9422 244.784 54.2761 238.626 59.266C232.476 64.2492 223.517 68.7811 212.357 72.6061C190.047 80.2526 159.162 85 125 85V86ZM84.5581 83.6883L84.4408 84.6814C97.1566 86.1843 110.802 87 125 87V86V85C110.877 85 97.3106 84.1886 84.6755 82.6953L84.5581 83.6883ZM84.5581 83.6883L83.6746 84.1566L97.7144 110.648L98.5979 110.18L99.4815 109.712L85.4417 83.2201L84.5581 83.6883ZM98.5979 110.18L99.3278 109.497L72.8991 81.2772L72.1693 81.9607L71.4394 82.6443L97.868 110.864L98.5979 110.18Z" fill="black"/>
</svg>
