<svg width="91" height="68" viewBox="0 0 91 68" fill="none" xmlns="http://www.w3.org/2000/svg">
<path fill-rule="evenodd" clip-rule="evenodd" d="M45.3674 48.527C20.8639 48.527 1 37.8877 1 24.7635C1 11.6393 20.8639 1 45.3674 1C69.8708 1 89.7347 11.6393 89.7347 24.7635C89.7347 34.5769 78.6287 43.001 62.7814 46.6267L73.1384 66.1693L55.9755 47.8434C52.5764 48.2901 49.0235 48.527 45.3674 48.527Z" fill="#FFE965"/>
<path d="M62.7814 46.6267L62.5584 45.6519C62.2552 45.7212 62.0016 45.9277 61.8722 46.2105C61.7427 46.4932 61.7522 46.8202 61.8978 47.0949L62.7814 46.6267ZM73.1384 66.1693L72.4085 66.8528C72.7511 67.2186 73.3115 67.2743 73.7194 66.9832C74.1273 66.692 74.2566 66.1438 74.0219 65.701L73.1384 66.1693ZM55.9755 47.8434L56.7053 47.1599C56.485 46.9246 56.1648 46.81 55.8452 46.852L55.9755 47.8434ZM1 24.7635H0C0 31.8725 5.3639 38.0784 13.5228 42.4483C21.7236 46.8407 32.9841 49.527 45.3674 49.527V48.527V47.527C33.2472 47.527 22.3241 44.8936 14.467 40.6853C6.56807 36.4545 2 30.7787 2 24.7635H1ZM45.3674 1V0C32.9841 0 21.7236 2.68623 13.5228 7.07865C5.3639 11.4486 0 17.6545 0 24.7635H1H2C2 18.7483 6.56807 13.0724 14.467 8.84168C22.3241 4.63341 33.2472 2 45.3674 2V1ZM89.7347 24.7635H90.7347C90.7347 17.6545 85.3708 11.4486 77.212 7.07865C69.0112 2.68623 57.7506 0 45.3674 0V1V2C57.4875 2 68.4107 4.63341 76.2677 8.84168C84.1667 13.0724 88.7347 18.7483 88.7347 24.7635H89.7347ZM62.7814 46.6267L63.0045 47.6015C71.0308 45.7651 77.9186 42.7012 82.8235 38.7979C87.7252 34.8972 90.7347 30.0777 90.7347 24.7635H89.7347H88.7347C88.7347 29.2627 86.1912 33.5619 81.5781 37.233C76.9682 40.9015 70.3793 43.8625 62.5584 45.6519L62.7814 46.6267ZM62.7814 46.6267L61.8978 47.0949L72.2548 66.6375L73.1384 66.1693L74.0219 65.701L63.665 46.1584L62.7814 46.6267ZM73.1384 66.1693L73.8682 65.4857L56.7053 47.1599L55.9755 47.8434L55.2456 48.527L72.4085 66.8528L73.1384 66.1693ZM45.3674 48.527V49.527C49.0665 49.527 52.663 49.2873 56.1057 48.8349L55.9755 47.8434L55.8452 46.852C52.4899 47.2929 48.9805 47.527 45.3674 47.527V48.527Z" fill="#F33535"/>
</svg>
