<svg width="112" height="93" viewBox="0 0 112 93" fill="none" xmlns="http://www.w3.org/2000/svg">
<path fill-rule="evenodd" clip-rule="evenodd" d="M75.2785 36.1941C76.4593 33.8725 77.0764 31.9911 76.8915 30.7872C76.6639 29.3045 75.7733 28.422 74.9044 27.5609C74.16 26.8233 73.4314 26.1013 73.1493 25.0314C72.8061 23.7296 74.1693 22.0706 75.5336 20.4102C76.5996 19.1129 77.6663 17.8147 77.9202 16.6854C78.2393 15.2662 77.3176 13.7271 76.4834 12.3341C75.8044 11.2002 75.1834 10.1631 75.3367 9.36638C75.6785 7.5909 80.3091 3.79839 80.3091 3.79839L77.1754 1C77.1754 1 69.6613 7.33912 69.7131 9.35635C69.7367 10.275 70.2124 11.1346 70.6709 11.963C71.2191 12.9536 71.7427 13.8995 71.4385 14.8482C71.2161 15.5419 70.2758 16.5083 69.2493 17.5633C67.6979 19.1577 65.9494 20.9548 66.1834 22.3195C66.365 23.3792 66.891 24.1503 67.3782 24.8646C67.9337 25.6789 68.4387 26.4194 68.3257 27.4293C68.1632 28.8818 65.5873 31.6489 61.6368 35.52L59.5516 36.1056C55.9101 37.1282 52.1368 37.0099 48.5365 35.7601L46.7395 35.1363C42.4099 33.6334 37.8173 34.1644 33.7535 36.6378L32.5798 37.3522C29.0136 39.5227 24.9621 39.8761 21.2093 38.3441C17.7017 36.9122 13.9251 37.1245 10.5232 38.9448L7.18829 40.7293C5.34461 41.7159 3.82106 43.5191 2.88117 45.827C1.94001 48.138 1.64342 50.8094 2.04282 53.378L2.44307 55.952C2.92066 59.0234 2.79695 62.2041 2.08355 65.1954L1.46348 67.7953C0.57706 71.512 0.974254 75.5532 2.55014 78.8511C3.70929 81.2769 5.43313 83.1453 7.46492 84.1779L8.76443 84.8384C11.442 86.1992 14.3688 86.469 17.1644 85.6126L22.1962 84.0711C25.1819 83.1565 28.309 84.4598 30.3495 87.4693C32.2739 90.3075 35.1747 91.6402 38.0239 90.995L45.1003 89.3925C47.5741 88.8324 50.1037 88.8512 52.5726 89.4482L57.6121 90.6667C61.3234 91.5641 65.1439 91.2849 68.7569 89.8524L70.481 89.1687C74.1878 87.6989 78.1197 87.5072 81.899 88.612L82.603 88.8177C86.3619 89.9166 90.2816 89.5738 93.8969 87.83L95.6741 86.9728C98.4884 85.6154 100.906 83.1264 102.584 79.8592L103.703 77.6821C104.456 76.2164 105.504 75.0556 106.73 74.3297C111.405 71.5626 112.472 63.4563 108.777 58.7826L108.329 58.2164C107.084 56.6417 106.281 54.5597 106.048 52.3083L105.964 51.4921C105.329 45.3244 101.325 40.7242 96.5937 40.7242H85.9681C82.8363 40.7242 79.7647 39.5925 77.0885 37.4527C76.5019 36.9837 75.8974 36.5639 75.2785 36.1941Z" fill="white"/>
<path d="M76.8915 30.7872L75.9031 30.9389V30.9389L76.8915 30.7872ZM75.2785 36.1941L74.3872 35.7407C74.1487 36.2095 74.3141 36.7828 74.7656 37.0525L75.2785 36.1941ZM74.9044 27.5609L74.2005 28.2713V28.2713L74.9044 27.5609ZM73.1493 25.0314L72.1824 25.2863V25.2863L73.1493 25.0314ZM75.5336 20.4102L74.761 19.7754V19.7754L75.5336 20.4102ZM77.9202 16.6854L78.8958 16.9048V16.9048L77.9202 16.6854ZM76.4834 12.3341L75.6255 12.8478V12.8478L76.4834 12.3341ZM75.3367 9.36638L74.3548 9.17733V9.17733L75.3367 9.36638ZM80.3091 3.79839L80.9427 4.57202C81.1688 4.38682 81.3026 4.11196 81.3088 3.81974C81.3151 3.52752 81.1931 3.24719 80.9751 3.05251L80.3091 3.79839ZM77.1754 1L77.8415 0.254122C77.4701 -0.0775629 76.9112 -0.0854334 76.5306 0.23566L77.1754 1ZM69.7131 9.35635L68.7134 9.38202V9.38203L69.7131 9.35635ZM70.6709 11.963L71.5458 11.4787V11.4787L70.6709 11.963ZM71.4385 14.8482L72.3907 15.1535V15.1535L71.4385 14.8482ZM69.2493 17.5633L69.966 18.2607V18.2607L69.2493 17.5633ZM66.1834 22.3195L67.169 22.1505V22.1505L66.1834 22.3195ZM67.3782 24.8646L66.5521 25.4281L66.5521 25.4281L67.3782 24.8646ZM68.3257 27.4293L69.3195 27.5405V27.5405L68.3257 27.4293ZM61.6368 35.52L61.9072 36.4828C62.069 36.4374 62.2167 36.3519 62.3367 36.2343L61.6368 35.52ZM59.5516 36.1056L59.822 37.0684V37.0684L59.5516 36.1056ZM48.5365 35.7601L48.2085 36.7048V36.7048L48.5365 35.7601ZM46.7395 35.1363L47.0674 34.1916H47.0674L46.7395 35.1363ZM33.7535 36.6378L34.2734 37.492V37.492L33.7535 36.6378ZM32.5798 37.3522L33.0997 38.2064H33.0997L32.5798 37.3522ZM21.2093 38.3441L21.5872 37.4182V37.4182L21.2093 38.3441ZM10.5232 38.9448L10.995 39.8265L10.5232 38.9448ZM7.18829 40.7293L7.66009 41.611H7.66009L7.18829 40.7293ZM2.88117 45.827L1.95502 45.4498H1.95502L2.88117 45.827ZM2.04282 53.378L1.05469 53.5316H1.05469L2.04282 53.378ZM2.44307 55.952L3.4312 55.7984V55.7984L2.44307 55.952ZM2.08355 65.1954L3.05627 65.4274V65.4274L2.08355 65.1954ZM1.46348 67.7953L0.490763 67.5633H0.490763L1.46348 67.7953ZM2.55014 78.8511L1.64786 79.2823H1.64786L2.55014 78.8511ZM7.46492 84.1779L7.918 83.2865H7.918L7.46492 84.1779ZM8.76443 84.8384L8.31135 85.7299L8.31135 85.7299L8.76443 84.8384ZM17.1644 85.6126L17.4573 86.5687H17.4573L17.1644 85.6126ZM22.1962 84.0711L22.4891 85.0273V85.0273L22.1962 84.0711ZM30.3495 87.4693L31.1772 86.9081V86.9081L30.3495 87.4693ZM38.0239 90.995L37.803 90.0197H37.803L38.0239 90.995ZM45.1003 89.3925L45.3212 90.3679V90.3679L45.1003 89.3925ZM52.5726 89.4482L52.8076 88.4762H52.8076L52.5726 89.4482ZM57.6121 90.6667L57.377 91.6387V91.6387L57.6121 90.6667ZM68.7569 89.8524L68.3883 88.9228V88.9228L68.7569 89.8524ZM70.481 89.1687L70.8496 90.0983H70.8496L70.481 89.1687ZM81.899 88.612L81.6184 89.5718H81.6185L81.899 88.612ZM82.603 88.8177L82.8836 87.8579L82.8835 87.8579L82.603 88.8177ZM93.8969 87.83L94.3313 88.7307V88.7307L93.8969 87.83ZM95.6741 86.9728L95.2396 86.0721L95.6741 86.9728ZM102.584 79.8592L101.695 79.4023V79.4023L102.584 79.8592ZM103.703 77.6821L104.592 78.139L104.592 78.139L103.703 77.6821ZM106.73 74.3297L106.221 73.4692V73.4692L106.73 74.3297ZM108.777 58.7826L109.561 58.1624V58.1624L108.777 58.7826ZM108.329 58.2164L107.545 58.8366V58.8366L108.329 58.2164ZM106.048 52.3083L107.043 52.2058V52.2058L106.048 52.3083ZM105.964 51.4921L104.97 51.5946V51.5946L105.964 51.4921ZM77.0885 37.4527L77.713 36.6716L77.713 36.6716L77.0885 37.4527ZM76.8915 30.7872L75.9031 30.9389C75.9621 31.3232 75.9021 31.9252 75.6409 32.7789C75.3851 33.6149 74.9626 34.6093 74.3872 35.7407L75.2785 36.1941L76.1698 36.6474C76.7751 35.4573 77.2516 34.3501 77.5533 33.3641C77.8496 32.3958 78.0058 31.4551 77.88 30.6354L76.8915 30.7872ZM74.9044 27.5609L74.2005 28.2713C75.0857 29.1484 75.7314 29.8206 75.9031 30.9389L76.8915 30.7872L77.88 30.6354C77.5964 28.7885 76.4609 27.6956 75.6083 26.8506L74.9044 27.5609ZM73.1493 25.0314L72.1824 25.2863C72.5445 26.6596 73.4847 27.5619 74.2005 28.2713L74.9044 27.5609L75.6083 26.8506C74.8352 26.0846 74.3184 25.5431 74.1163 24.7764L73.1493 25.0314ZM75.5336 20.4102L74.761 19.7754C74.0925 20.5889 73.3571 21.4803 72.8424 22.3429C72.347 23.1731 71.9019 24.2225 72.1824 25.2863L73.1493 25.0314L74.1163 24.7764C74.0536 24.5385 74.1184 24.1075 74.5599 23.3677C74.982 22.6602 75.6104 21.892 76.3062 21.0451L75.5336 20.4102ZM77.9202 16.6854L76.9445 16.4661C76.86 16.8419 76.6173 17.322 76.2074 17.9183C75.8046 18.5042 75.3005 19.1188 74.761 19.7754L75.5336 20.4102L76.3062 21.0451C76.8327 20.4043 77.395 19.7212 77.8555 19.0513C78.3089 18.3919 78.7264 17.6582 78.8958 16.9048L77.9202 16.6854ZM76.4834 12.3341L75.6255 12.8478C76.0512 13.5588 76.446 14.2225 76.7059 14.8716C76.9649 15.5184 77.0411 16.0365 76.9445 16.4661L77.9202 16.6854L78.8958 16.9048C79.1183 15.9152 78.8933 14.954 78.5626 14.1282C78.2329 13.3047 77.7497 12.5023 77.3413 11.8203L76.4834 12.3341ZM75.3367 9.36638L74.3548 9.17733C74.2188 9.88352 74.4398 10.5764 74.6831 11.1276C74.9342 11.6964 75.2951 12.2961 75.6255 12.8478L76.4834 12.3341L77.3413 11.8203C76.9927 11.2382 76.7036 10.7523 76.5128 10.32C76.3141 9.86996 76.3013 9.64595 76.3187 9.55542L75.3367 9.36638ZM80.3091 3.79839C79.6754 3.02475 79.6753 3.02482 79.6752 3.02491C79.6752 3.02496 79.675 3.02507 79.6749 3.02516C79.6747 3.02536 79.6744 3.02561 79.674 3.02592C79.6732 3.02655 79.6722 3.0274 79.6709 3.02848C79.6683 3.03063 79.6645 3.0337 79.6597 3.03766C79.6501 3.04556 79.6363 3.05702 79.6184 3.07184C79.5827 3.10149 79.5309 3.14463 79.4653 3.19985C79.3342 3.31025 79.1475 3.46914 78.9229 3.66509C78.4744 4.05621 77.8704 4.5987 77.2531 5.2005C76.6389 5.79913 75.9949 6.47253 75.4757 7.12424C74.9907 7.73307 74.4908 8.47087 74.3548 9.17733L75.3367 9.36638L76.3187 9.55542C76.3536 9.37415 76.5607 8.97208 77.04 8.37047C77.4851 7.81172 78.0629 7.20409 78.6491 6.63266C79.2321 6.06439 79.807 5.54778 80.2375 5.17233C80.4523 4.98499 80.63 4.83371 80.7535 4.72977C80.8152 4.67782 80.8633 4.63775 80.8955 4.61098C80.9117 4.59759 80.9238 4.58754 80.9318 4.58098C80.9358 4.57771 80.9387 4.57531 80.9405 4.57381C80.9414 4.57305 80.9421 4.57253 80.9424 4.57223C80.9426 4.57208 80.9427 4.57199 80.9428 4.57195C80.9428 4.57194 80.9428 4.57195 80.9428 4.57194C80.9427 4.57198 80.9427 4.57202 80.3091 3.79839ZM77.1754 1L76.5093 1.74588L79.643 4.54426L80.3091 3.79839L80.9751 3.05251L77.8415 0.254122L77.1754 1ZM69.7131 9.35635L70.7127 9.33068C70.7133 9.35171 70.7169 9.22557 70.8961 8.89819C71.0585 8.60132 71.3097 8.23789 71.6403 7.82151C72.2997 6.99118 73.2002 6.0431 74.1252 5.13549C75.0458 4.23219 75.9705 3.38842 76.6667 2.76923C77.0143 2.46005 77.3039 2.20783 77.5061 2.0333C77.6072 1.94606 77.6863 1.87829 77.7399 1.83258C77.7667 1.80973 77.7871 1.7924 77.8007 1.78092C77.8074 1.77518 77.8125 1.7709 77.8158 1.76812C77.8174 1.76673 77.8186 1.76572 77.8194 1.76509C77.8197 1.76477 77.82 1.76455 77.8201 1.76443C77.8202 1.76436 77.8202 1.76434 77.8203 1.76431C77.8203 1.76431 77.8202 1.76434 77.1754 1C76.5306 0.23566 76.5305 0.235735 76.5304 0.235834C76.5303 0.235899 76.5302 0.236022 76.53 0.236152C76.5297 0.236413 76.5293 0.23677 76.5288 0.237223C76.5277 0.238128 76.5262 0.239416 76.5242 0.241082C76.5202 0.244414 76.5145 0.249258 76.5071 0.255572C76.4922 0.2682 76.4704 0.286713 76.4422 0.310784C76.3857 0.358924 76.3035 0.429314 76.1992 0.519346C75.9907 0.699372 75.6936 0.95815 75.3376 1.27478C74.6265 1.90721 73.6759 2.7743 72.7244 3.70794C71.7773 4.63725 70.8091 5.65219 70.0741 6.57779C69.7075 7.03937 69.3801 7.50214 69.1416 7.93805C68.9197 8.34345 68.6999 8.85668 68.7134 9.38202L69.7131 9.35635ZM70.6709 11.963L71.5458 11.4787C71.0595 10.6001 70.7289 9.96031 70.7127 9.33067L69.7131 9.35635L68.7134 9.38203C68.7444 10.5897 69.3653 11.6691 69.7959 12.4472L70.6709 11.963ZM71.4385 14.8482L72.3907 15.1535C72.6297 14.4083 72.5248 13.7038 72.322 13.102C72.1262 12.521 71.8093 11.9548 71.5458 11.4787L70.6709 11.963L69.7959 12.4472C70.0807 12.9618 70.2997 13.3638 70.4267 13.7407C70.5467 14.0966 70.5515 14.3394 70.4862 14.5429L71.4385 14.8482ZM69.2493 17.5633L69.966 18.2607C70.4724 17.7402 70.9899 17.209 71.4073 16.7179C71.8027 16.2529 72.2134 15.7066 72.3907 15.1535L71.4385 14.8482L70.4862 14.5429C70.4412 14.6835 70.2706 14.9673 69.8835 15.4226C69.5186 15.8519 69.0526 16.3314 68.5325 16.866L69.2493 17.5633ZM66.1834 22.3195L67.169 22.1505C67.1282 21.9124 67.2595 21.4271 67.8527 20.6196C68.4055 19.8672 69.1775 19.0711 69.966 18.2607L69.2493 17.5633L68.5325 16.866C67.7697 17.65 66.8917 18.5496 66.2409 19.4355C65.6306 20.2663 65.0046 21.3619 65.1978 22.4885L66.1834 22.3195ZM67.3782 24.8646L68.2043 24.3011C67.7097 23.576 67.3094 22.9695 67.169 22.1505L66.1834 22.3195L65.1977 22.4885C65.4207 23.7889 66.0723 24.7247 66.5521 25.4281L67.3782 24.8646ZM68.3257 27.4293L69.3195 27.5405C69.4798 26.1084 68.7273 25.0678 68.2043 24.3011L67.3782 24.8646L66.5521 25.4281C67.14 26.2901 67.3977 26.7304 67.3319 27.3181L68.3257 27.4293ZM61.6368 35.52L62.3367 36.2343C64.3128 34.2979 65.9727 32.6111 67.1625 31.2168C67.7572 30.5198 68.2534 29.8741 68.6167 29.2901C68.9677 28.7258 69.2539 28.1273 69.3195 27.5405L68.3257 27.4293L67.3319 27.3181C67.3163 27.4576 67.2195 27.7497 66.9185 28.2337C66.6296 28.698 66.2044 29.2584 65.6411 29.9186C64.5146 31.2387 62.9114 32.871 60.9369 34.8058L61.6368 35.52ZM59.5516 36.1056L59.822 37.0684L61.9072 36.4828L61.6368 35.52L61.3665 34.5573L59.2812 35.1428L59.5516 36.1056ZM48.5365 35.7601L48.2085 36.7048C52.0002 38.021 55.9823 38.1466 59.822 37.0684L59.5516 36.1056L59.2812 35.1428C55.8379 36.1098 52.2734 35.9987 48.8644 34.8154L48.5365 35.7601ZM46.7395 35.1363L46.4115 36.081L48.2085 36.7048L48.5365 35.7601L48.8644 34.8154L47.0674 34.1916L46.7395 35.1363ZM33.7535 36.6378L34.2734 37.492C38.0935 35.167 42.376 34.6802 46.4115 36.081L46.7395 35.1363L47.0674 34.1916C42.4437 32.5866 37.5412 33.1618 33.2336 35.7836L33.7535 36.6378ZM32.5798 37.3522L33.0997 38.2064L34.2734 37.492L33.7535 36.6378L33.2336 35.7836L32.0598 36.498L32.5798 37.3522ZM21.2093 38.3441L20.8313 39.2699C24.8881 40.926 29.272 40.536 33.0997 38.2064L32.5798 37.3522L32.0598 36.498C28.7551 38.5093 25.0362 38.8262 21.5872 37.4182L21.2093 38.3441ZM10.5232 38.9448L10.995 39.8265C14.14 38.1437 17.6052 37.9529 20.8313 39.2699L21.2093 38.3441L21.5872 37.4182C17.7981 35.8714 13.7103 36.1053 10.0514 38.0631L10.5232 38.9448ZM7.18829 40.7293L7.66009 41.611L10.995 39.8265L10.5232 38.9448L10.0514 38.0631L6.71649 39.8476L7.18829 40.7293ZM2.88117 45.827L3.80731 46.2041C4.67684 44.069 6.05979 42.4673 7.66009 41.611L7.18829 40.7293L6.7165 39.8476C4.62944 40.9644 2.96527 42.9691 1.95502 45.4498L2.88117 45.827ZM2.04282 53.378L3.03094 53.2243C2.6582 50.8272 2.93752 48.3399 3.80731 46.2041L2.88117 45.827L1.95502 45.4498C0.942508 47.936 0.628631 50.7916 1.05469 53.5316L2.04282 53.378ZM2.44307 55.952L3.4312 55.7984L3.03094 53.2243L2.04282 53.378L1.05469 53.5316L1.45494 56.1057L2.44307 55.952ZM2.08355 65.1954L3.05627 65.4274C3.80013 62.3084 3.92852 58.9967 3.4312 55.7984L2.44307 55.952L1.45494 56.1057C1.9128 59.0502 1.79377 62.0998 1.11083 64.9634L2.08355 65.1954ZM1.46348 67.7953L2.4362 68.0273L3.05627 65.4274L2.08355 65.1954L1.11083 64.9634L0.490763 67.5633L1.46348 67.7953ZM2.55014 78.8511L3.45242 78.42C1.97993 75.3384 1.60026 71.5324 2.4362 68.0273L1.46348 67.7953L0.490763 67.5633C-0.446143 71.4917 -0.0314205 75.7679 1.64786 79.2823L2.55014 78.8511ZM7.46492 84.1779L7.918 83.2865C6.11623 82.3708 4.5343 80.6841 3.45242 78.42L2.55014 78.8511L1.64786 79.2823C2.88427 81.8698 4.75004 83.9199 7.01184 85.0694L7.46492 84.1779ZM8.76443 84.8384L9.21751 83.9469L7.918 83.2865L7.46492 84.1779L7.01184 85.0694L8.31135 85.7299L8.76443 84.8384ZM17.1644 85.6126L16.8715 84.6564C14.331 85.4347 11.6711 85.194 9.2175 83.9469L8.76443 84.8384L8.31135 85.7299C11.2128 87.2045 14.4066 87.5032 17.4573 86.5687L17.1644 85.6126ZM22.1962 84.0711L21.9033 83.115L16.8715 84.6564L17.1644 85.6126L17.4573 86.5687L22.4891 85.0273L22.1962 84.0711ZM30.3495 87.4693L31.1772 86.9081C28.9444 83.615 25.3942 82.0456 21.9033 83.115L22.1962 84.0711L22.4891 85.0273C24.9697 84.2674 27.6736 85.3046 29.5218 88.0305L30.3495 87.4693ZM38.0239 90.995L37.803 90.0197C35.4376 90.5553 32.9219 89.4814 31.1772 86.9081L30.3495 87.4693L29.5218 88.0305C31.6259 91.1337 34.9118 92.725 38.2447 91.9703L38.0239 90.995ZM45.1003 89.3925L44.8795 88.4172L37.803 90.0197L38.0239 90.995L38.2447 91.9703L45.3212 90.3679L45.1003 89.3925ZM52.5726 89.4482L52.8076 88.4762C50.1893 87.8431 47.5037 87.823 44.8795 88.4172L45.1003 89.3925L45.3212 90.3679C47.6446 89.8417 50.0181 89.8593 52.3375 90.4201L52.5726 89.4482ZM57.6121 90.6667L57.8471 89.6947L52.8076 88.4762L52.5726 89.4482L52.3375 90.4201L57.377 91.6387L57.6121 90.6667ZM68.7569 89.8524L68.3883 88.9228C64.9636 90.2807 61.3539 90.5427 57.8471 89.6947L57.6121 90.6667L57.377 91.6387C61.2929 92.5856 65.3242 92.2892 69.1254 90.7819L68.7569 89.8524ZM70.481 89.1687L70.1124 88.2391L68.3883 88.9228L68.7569 89.8524L69.1254 90.7819L70.8496 90.0983L70.481 89.1687ZM81.899 88.612L82.1796 87.6521C78.1836 86.484 74.0234 86.6884 70.1124 88.2391L70.481 89.1687L70.8496 90.0983C74.3523 88.7094 78.0557 88.5303 81.6184 89.5718L81.899 88.612ZM82.603 88.8177L82.8835 87.8579L82.1796 87.6521L81.899 88.612L81.6185 89.5718L82.3224 89.7776L82.603 88.8177ZM93.8969 87.83L93.4625 86.9293C90.0639 88.5685 86.3986 88.8854 82.8836 87.8579L82.603 88.8177L82.3224 89.7776C86.3252 90.9477 90.4994 90.579 94.3313 88.7307L93.8969 87.83ZM95.6741 86.9728L95.2396 86.0721L93.4625 86.9293L93.8969 87.83L94.3313 88.7307L96.1085 87.8735L95.6741 86.9728ZM102.584 79.8592L101.695 79.4023C100.098 82.5112 97.8252 84.825 95.2396 86.0721L95.6741 86.9728L96.1085 87.8735C99.1516 86.4057 101.714 83.7417 103.474 80.3161L102.584 79.8592ZM103.703 77.6821L102.813 77.2252L101.695 79.4023L102.584 79.8592L103.474 80.3161L104.592 78.139L103.703 77.6821ZM106.73 74.3297L106.221 73.4692C104.808 74.3053 103.638 75.6186 102.813 77.2252L103.703 77.6821L104.592 78.139C105.273 76.8143 106.2 75.8059 107.24 75.1903L106.73 74.3297ZM108.777 58.7826L107.992 59.4028C109.641 61.4884 110.262 64.3979 109.901 67.1406C109.538 69.8924 108.218 72.2869 106.221 73.4692L106.73 74.3297L107.24 75.1903C109.917 73.6054 111.467 70.5631 111.884 67.4016C112.301 64.231 111.607 60.7504 109.561 58.1624L108.777 58.7826ZM108.329 58.2164L107.545 58.8366L107.992 59.4028L108.777 58.7826L109.561 58.1624L109.114 57.5962L108.329 58.2164ZM106.048 52.3083L105.054 52.4108C105.303 54.8264 106.167 57.0944 107.545 58.8366L108.329 58.2164L109.114 57.5962C108.001 56.189 107.258 54.2929 107.043 52.2058L106.048 52.3083ZM105.964 51.4921L104.97 51.5946L105.054 52.4108L106.048 52.3083L107.043 52.2058L106.959 51.3895L105.964 51.4921ZM96.5937 40.7242V41.7242C100.611 41.7242 104.363 45.7075 104.97 51.5946L105.964 51.4921L106.959 51.3895C106.294 44.9413 102.039 39.7242 96.5937 39.7242V40.7242ZM85.9681 40.7242V41.7242H96.5937V40.7242V39.7242H85.9681V40.7242ZM77.0885 37.4527L76.464 38.2337C79.2997 40.5011 82.5875 41.7242 85.9681 41.7242V40.7242V39.7242C83.085 39.7242 80.2297 38.6839 77.713 36.6716L77.0885 37.4527ZM75.2785 36.1941L74.7656 37.0525C75.3445 37.3984 75.9119 37.7922 76.464 38.2337L77.0885 37.4527L77.713 36.6716C77.092 36.1751 76.4503 35.7293 75.7914 35.3356L75.2785 36.1941Z" fill="black"/>
</svg>
