<svg width="235" height="122" viewBox="0 0 235 122" fill="none" xmlns="http://www.w3.org/2000/svg">
<path d="M86.6982 8.38442C98.8206 13.2588 111.378 9.23671 110.494 1.00016C113.718 10.9873 139.63 16.9189 148.049 8.53826C156.704 24.6949 191.421 23.3736 200.798 11.4271C193.437 26.8709 208.693 45.216 228.447 41.0649C212.074 46.3389 209.14 77.4006 233.35 88.6903C206.057 88.6219 197.937 101.671 198.266 116.722C181.992 104.382 157.626 111.21 152.254 120.82C145.457 107.958 106.51 112.653 99.1836 118.959C96.4985 103.25 58.1778 99.4867 50.7441 112.126C51.5796 96.8693 30.1286 85.204 11.9121 94.3262C20.8346 84.2984 24.1301 64.5582 1.00007 58.5508C24.0001 58.6085 25.0161 40.2464 18.9317 35.5005C33.4266 40.1569 56.2158 28.7992 47.8927 15.3534C46.4209 14.2476 45.3041 12.9591 44.671 11.5017C46.0442 12.7964 47.107 14.0842 47.8927 15.3534C57.8391 22.8259 84.0011 21.9485 86.6982 8.38442Z" fill="white" stroke="black" stroke-width="2" stroke-linecap="round" stroke-linejoin="round"/>
</svg>
