<svg width="191" height="127" viewBox="0 0 191 127" fill="none" xmlns="http://www.w3.org/2000/svg">
<path d="M61.1024 125.1L100.614 107.849L144.021 115.083L137.9 98.388L177.412 103.397L155.151 85.5884L189.655 61.1023L152.369 49.9722L160.716 18.2515L126.213 31.6076L97.8316 0.999939L81.1365 28.2686L52.1983 8.79099L48.3028 36.0597L1.00001 31.6076L22.7036 61.1023L1.00001 71.1194L29.3817 85.5885L18.8081 107.849L52.1983 107.849L61.1024 125.1Z" fill="black"/>
<path d="M100.614 107.849L100.214 106.932C100.391 106.855 100.588 106.83 100.778 106.862L100.614 107.849ZM61.1024 125.1L61.5025 126.017C61.0194 126.228 60.4555 126.027 60.2137 125.559L61.1024 125.1ZM52.1983 107.849L52.1983 106.849C52.5725 106.849 52.9153 107.057 53.0869 107.39L52.1983 107.849ZM18.8081 107.849L18.8081 108.849C18.4651 108.849 18.1461 108.673 17.9628 108.383C17.7796 108.093 17.7577 107.729 17.9048 107.42L18.8081 107.849ZM29.3817 85.5885L29.8359 84.6975C30.3182 84.9434 30.5173 85.5285 30.285 86.0175L29.3817 85.5885ZM1 71.1194L0.545819 72.0103C0.204606 71.8363 -0.0072816 71.4828 0.000202645 71.0998C0.00767468 70.7169 0.233206 70.3719 0.580941 70.2114L1 71.1194ZM22.7036 61.1023L23.5091 60.5096C23.6871 60.7516 23.7469 61.0607 23.672 61.3516C23.5971 61.6426 23.3954 61.8844 23.1227 62.0103L22.7036 61.1023ZM0.999999 31.6076L0.194569 32.2003C-0.0389957 31.8829 -0.0643695 31.4579 0.12977 31.115C0.323923 30.772 0.701367 30.5751 1.09371 30.612L0.999999 31.6076ZM48.3028 36.0597L49.2927 36.2011C49.2173 36.7293 48.7403 37.1053 48.2091 37.0553L48.3028 36.0597ZM52.1983 8.79099L51.2084 8.64957C51.257 8.30878 51.4776 8.017 51.7922 7.87718C52.1067 7.73737 52.4711 7.76918 52.7567 7.9614L52.1983 8.79099ZM81.1365 28.2686L81.9893 28.7908C81.847 29.0233 81.6158 29.1876 81.3493 29.2457C81.0829 29.3037 80.8043 29.2505 80.5781 29.0982L81.1365 28.2686ZM97.8316 0.99994L96.9787 0.477785C97.1422 0.210852 97.4211 0.0358339 97.7326 0.00485038C98.044 -0.0261315 98.352 0.0904954 98.5648 0.32L97.8316 0.99994ZM126.213 31.6076L126.574 32.5402C126.192 32.6881 125.759 32.588 125.48 32.2876L126.213 31.6076ZM160.716 18.2515L160.355 17.319C160.706 17.1833 161.103 17.2556 161.383 17.506C161.663 17.7564 161.779 18.1427 161.684 18.506L160.716 18.2515ZM152.369 49.9722L152.083 50.9305C151.566 50.7761 151.265 50.2395 151.402 49.7177L152.369 49.9722ZM189.655 61.1023L189.941 60.1441C190.307 60.2535 190.579 60.5622 190.641 60.9395C190.704 61.3167 190.545 61.6965 190.233 61.9178L189.655 61.1023ZM155.151 85.5885L154.527 86.3693C154.282 86.1732 154.143 85.8734 154.152 85.5597C154.161 85.2459 154.317 84.9546 154.573 84.7729L155.151 85.5885ZM177.412 103.397L178.036 102.616C178.386 102.896 178.507 103.374 178.332 103.786C178.158 104.199 177.73 104.445 177.286 104.389L177.412 103.397ZM137.9 98.388L136.961 98.7323C136.841 98.4046 136.9 98.0379 137.118 97.7649C137.335 97.4919 137.679 97.3521 138.026 97.396L137.9 98.388ZM144.021 115.083L144.96 114.739C145.083 115.073 145.018 115.447 144.791 115.721C144.564 115.995 144.208 116.128 143.857 116.07L144.021 115.083ZM100.614 107.849L101.014 108.765L61.5025 126.017L61.1024 125.1L60.7022 124.184L100.214 106.932L100.614 107.849ZM61.1024 125.1L60.2137 125.559L51.3097 108.307L52.1983 107.849L53.0869 107.39L61.991 124.642L61.1024 125.1ZM52.1983 107.849L52.1983 108.849L18.8081 108.849L18.8081 107.849L18.8081 106.849L52.1983 106.849L52.1983 107.849ZM18.8081 107.849L17.9048 107.42L28.4784 85.1594L29.3817 85.5885L30.285 86.0175L19.7114 108.278L18.8081 107.849ZM29.3817 85.5885L28.9275 86.4794L0.545819 72.0103L1 71.1194L1.4542 70.2285L29.8359 84.6975L29.3817 85.5885ZM1 71.1194L0.580941 70.2114L22.2846 60.1943L22.7036 61.1023L23.1227 62.0103L1.41906 72.0273L1 71.1194ZM22.7036 61.1023L21.8982 61.695L0.194569 32.2003L0.999999 31.6076L1.80544 31.0149L23.5091 60.5096L22.7036 61.1023ZM0.999999 31.6076L1.09371 30.612L48.3965 35.0641L48.3028 36.0597L48.2091 37.0553L0.9063 32.6032L0.999999 31.6076ZM48.3028 36.0597L47.3128 35.9182L51.2084 8.64957L52.1983 8.79099L53.1883 8.93241L49.2927 36.2011L48.3028 36.0597ZM52.1983 8.79099L52.7567 7.9614L81.6949 27.439L81.1365 28.2686L80.5781 29.0982L51.6399 9.62058L52.1983 8.79099ZM81.1365 28.2686L80.2836 27.7464L96.9787 0.477785L97.8316 0.99994L98.6844 1.52209L81.9893 28.7908L81.1365 28.2686ZM97.8316 0.99994L98.5648 0.32L126.947 30.9277L126.213 31.6076L125.48 32.2876L97.0983 1.67988L97.8316 0.99994ZM126.213 31.6076L125.852 30.6751L160.355 17.319L160.716 18.2515L161.077 19.1841L126.574 32.5402L126.213 31.6076ZM160.716 18.2515L161.684 18.506L153.336 50.2267L152.369 49.9722L151.402 49.7177L159.749 17.997L160.716 18.2515ZM152.369 49.9722L152.655 49.014L189.941 60.1441L189.655 61.1023L189.369 62.0605L152.083 50.9305L152.369 49.9722ZM189.655 61.1023L190.233 61.9178L155.73 86.404L155.151 85.5885L154.573 84.7729L189.076 60.2868L189.655 61.1023ZM155.151 85.5885L155.776 84.8076L178.036 102.616L177.412 103.397L176.787 104.177L154.527 86.3693L155.151 85.5885ZM177.412 103.397L177.286 104.389L137.774 99.3801L137.9 98.388L138.026 97.396L177.537 102.404L177.412 103.397ZM137.9 98.388L138.839 98.0438L144.96 114.739L144.021 115.083L143.082 115.427L136.961 98.7323L137.9 98.388ZM144.021 115.083L143.857 116.07L100.45 108.835L100.614 107.849L100.778 106.862L144.186 114.097L144.021 115.083Z" fill="#8B8B8B"/>
</svg>
